<svg id="SvgjsSvg1001" width="288" height="288" xmlns="http://www.w3.org/2000/svg" version="1.1" xmlns:xlink="http://www.w3.org/1999/xlink" xmlns:svgjs="http://svgjs.com/svgjs"><defs id="SvgjsDefs1002"></defs><g id="SvgjsG1008" transform="matrix(1,0,0,1,0,0)"><svg xmlns="http://www.w3.org/2000/svg" enable-background="new 0 0 512 512" viewBox="0 0 512 512" width="288" height="288"><path fill="#c4c4c4" d="M381,236H276V131c0-11-9-20-20-20s-20,9-20,20v105H131c-11,0-20,9-20,20s9,20,20,20h105v105c0,11,9,20,20,20  s20-9,20-20V276h105c11,0,20-9,20-20S392,236,381,236z" class="color231f20 svgShape"></path></svg></g></svg>